<svg width="49" height="48" viewBox="0 0 49 48" fill="none" xmlns="http://www.w3.org/2000/svg">
<circle cx="24.8467" cy="24" r="23.5" stroke="#101213"/>
<path d="M32.8467 23.2C33.2885 23.2 33.6467 23.5582 33.6467 24C33.6467 24.4418 33.2885 24.8 32.8467 24.8V23.2ZM16.281 24.5657C15.9686 24.2533 15.9686 23.7467 16.281 23.4343L21.3722 18.3431C21.6846 18.0307 22.1911 18.0307 22.5035 18.3431C22.816 18.6556 22.816 19.1621 22.5035 19.4745L17.9781 24L22.5035 28.5255C22.816 28.8379 22.816 29.3444 22.5035 29.6569C22.1911 29.9693 21.6846 29.9693 21.3722 29.6569L16.281 24.5657ZM32.8467 24.8H16.8467V23.2H32.8467V24.8Z" fill="#101213"/>
</svg>
