<svg width="49" height="48" viewBox="0 0 49 48" fill="none" xmlns="http://www.w3.org/2000/svg">
<circle cx="24.8467" cy="24" r="24" fill="#101213"/>
<path d="M16.8467 23.2C16.4049 23.2 16.0467 23.5582 16.0467 24C16.0467 24.4418 16.4049 24.8 16.8467 24.8V23.2ZM33.4124 24.5657C33.7248 24.2533 33.7248 23.7467 33.4124 23.4343L28.3212 18.3431C28.0088 18.0307 27.5022 18.0307 27.1898 18.3431C26.8774 18.6556 26.8774 19.1621 27.1898 19.4745L31.7153 24L27.1898 28.5255C26.8774 28.8379 26.8774 29.3444 27.1898 29.6569C27.5022 29.9693 28.0088 29.9693 28.3212 29.6569L33.4124 24.5657ZM16.8467 24.8H32.8467V23.2H16.8467V24.8Z" fill="white"/>
</svg>
